<svg id="mermaid-1608860798971" width="100%" xmlns="http://www.w3.org/2000/svg" xmlns:xlink="http://www.w3.org/1999/xlink" height="701.375" style="max-width: 4681.109375px;" viewBox="-20 -20 4681.109375 701.375"><style>#mermaid-1608860798971{font-family:"trebuchet ms",verdana,arial,sans-serif;font-size:16px;fill:#333;}#mermaid-1608860798971 .error-icon{fill:#552222;}#mermaid-1608860798971 .error-text{fill:#552222;stroke:#552222;}#mermaid-1608860798971 .edge-thickness-normal{stroke-width:2px;}#mermaid-1608860798971 .edge-thickness-thick{stroke-width:3.5px;}#mermaid-1608860798971 .edge-pattern-solid{stroke-dasharray:0;}#mermaid-1608860798971 .edge-pattern-dashed{stroke-dasharray:3;}#mermaid-1608860798971 .edge-pattern-dotted{stroke-dasharray:2;}#mermaid-1608860798971 .marker{fill:#333333;}#mermaid-1608860798971 .marker.cross{stroke:#333333;}#mermaid-1608860798971 svg{font-family:"trebuchet ms",verdana,arial,sans-serif;font-size:16px;}#mermaid-1608860798971 g.classGroup text{fill:#9370DB;fill:#131300;stroke:none;font-family:"trebuchet ms",verdana,arial,sans-serif;font-size:10px;}#mermaid-1608860798971 g.classGroup text .title{font-weight:bolder;}#mermaid-1608860798971 .classTitle{font-weight:bolder;}#mermaid-1608860798971 .node rect,#mermaid-1608860798971 .node circle,#mermaid-1608860798971 .node ellipse,#mermaid-1608860798971 .node polygon,#mermaid-1608860798971 .node path{fill:#ECECFF;stroke:#9370DB;stroke-width:1px;}#mermaid-1608860798971 .divider{stroke:#9370DB;stroke:1;}#mermaid-1608860798971 g.clickable{cursor:pointer;}#mermaid-1608860798971 g.classGroup rect{fill:#ECECFF;stroke:#9370DB;}#mermaid-1608860798971 g.classGroup line{stroke:#9370DB;stroke-width:1;}#mermaid-1608860798971 .classLabel .box{stroke:none;stroke-width:0;fill:#ECECFF;opacity:0.5;}#mermaid-1608860798971 .classLabel .label{fill:#9370DB;font-size:10px;}#mermaid-1608860798971 .relation{stroke:#333333;stroke-width:1;fill:none;}#mermaid-1608860798971 .dashed-line{stroke-dasharray:3;}#mermaid-1608860798971 #compositionStart,#mermaid-1608860798971 .composition{fill:#333333 !important;stroke:#333333 !important;stroke-width:1;}#mermaid-1608860798971 #compositionEnd,#mermaid-1608860798971 .composition{fill:#333333 !important;stroke:#333333 !important;stroke-width:1;}#mermaid-1608860798971 #dependencyStart,#mermaid-1608860798971 .dependency{fill:#333333 !important;stroke:#333333 !important;stroke-width:1;}#mermaid-1608860798971 #dependencyStart,#mermaid-1608860798971 .dependency{fill:#333333 !important;stroke:#333333 !important;stroke-width:1;}#mermaid-1608860798971 #extensionStart,#mermaid-1608860798971 .extension{fill:#333333 !important;stroke:#333333 !important;stroke-width:1;}#mermaid-1608860798971 #extensionEnd,#mermaid-1608860798971 .extension{fill:#333333 !important;stroke:#333333 !important;stroke-width:1;}#mermaid-1608860798971 #aggregationStart,#mermaid-1608860798971 .aggregation{fill:#ECECFF !important;stroke:#333333 !important;stroke-width:1;}#mermaid-1608860798971 #aggregationEnd,#mermaid-1608860798971 .aggregation{fill:#ECECFF !important;stroke:#333333 !important;stroke-width:1;}#mermaid-1608860798971 .edgeTerminals{font-size:11px;}#mermaid-1608860798971:root{--mermaid-font-family:"trebuchet ms",verdana,arial,sans-serif;}#mermaid-1608860798971 class{fill:apa;}</style><g></g><defs><marker id="extensionStart" class="extension" refX="0" refY="7" markerWidth="190" markerHeight="240" orient="auto"><path d="M 1,7 L18,13 V 1 Z"></path></marker></defs><defs><marker id="extensionEnd" refX="19" refY="7" markerWidth="20" markerHeight="28" orient="auto"><path d="M 1,1 V 13 L18,7 Z"></path></marker></defs><defs><marker id="compositionStart" class="extension" refX="0" refY="7" markerWidth="190" markerHeight="240" orient="auto"><path d="M 18,7 L9,13 L1,7 L9,1 Z"></path></marker></defs><defs><marker id="compositionEnd" refX="19" refY="7" markerWidth="20" markerHeight="28" orient="auto"><path d="M 18,7 L9,13 L1,7 L9,1 Z"></path></marker></defs><defs><marker id="aggregationStart" class="extension" refX="0" refY="7" markerWidth="190" markerHeight="240" orient="auto"><path d="M 18,7 L9,13 L1,7 L9,1 Z"></path></marker></defs><defs><marker id="aggregationEnd" refX="19" refY="7" markerWidth="20" markerHeight="28" orient="auto"><path d="M 18,7 L9,13 L1,7 L9,1 Z"></path></marker></defs><defs><marker id="dependencyStart" class="extension" refX="0" refY="7" markerWidth="190" markerHeight="240" orient="auto"><path d="M 5,7 L9,13 L1,7 L9,1 Z"></path></marker></defs><defs><marker id="dependencyEnd" refX="19" refY="7" markerWidth="20" markerHeight="28" orient="auto"><path d="M 18,7 L9,13 L14,7 L9,1 Z"></path></marker></defs><g id="classid-AirHandlingUnit1-4981" class="classGroup" transform="translate(2446.921875,357.6875 )"><rect x="0" y="0" width="198.984375" height="222.625" class=" "></rect><text y="15" x="0"><tspan class="title" x="59.5859375">AirHandlingUnit1</tspan></text><line x1="0" y1="21.5625" y2="21.5625" x2="198.984375"></line><text x="5" y="31.5625" fill="white" class="classText"><tspan x="5">+Object ventilationConfiguration</tspan><tspan x="5" dy="10">+string refrigerantType</tspan><tspan x="5" dy="10">+double nominalCoolingCapacity</tspan><tspan x="5" dy="10">+double netSensibleCoolingCapacity</tspan><tspan x="5" dy="10">+Object humidificationMethod</tspan><tspan x="5" dy="10">+string filterType</tspan><tspan x="5" dy="10">+Object dischargeDuctworkConfiguration</tspan><tspan x="5" dy="10">+Object dehumidificationMethod</tspan><tspan x="5" dy="10">+Object airflowModulation</tspan><tspan x="5" dy="10">+Object supplyFan</tspan><tspan x="5" dy="10">+Object secondaryCoolingMethod</tspan><tspan x="5" dy="10">+Object returnFan</tspan><tspan x="5" dy="10">+Object reHeatingMethod</tspan><tspan x="5" dy="10">+Object primaryCoolingMethod</tspan><tspan x="5" dy="10">+Object preHeatingMethod</tspan><tspan x="5" dy="10">+Object mixingBox</tspan><tspan x="5" dy="10">+Object exhaustFan</tspan><tspan x="5" dy="10">+Object ventilationStrategy</tspan><tspan x="5" dy="10">+Object zoneDelivery</tspan></text><line x1="0" y1="218.125" y2="218.125" x2="198.984375"></line><text x="5" y="233.125" fill="white" class="classText"></text></g><g id="classid-HVACEquipment1-4982" class="classGroup" transform="translate(2500.5,630.3125 )"><rect x="0" y="0" width="91.828125" height="31.0625" class=" "></rect><text y="15" x="0"><tspan class="title" x="5">HVACEquipment1</tspan></text><line x1="0" y1="21.5625" y2="21.5625" x2="91.828125"></line><text x="5" y="31.5625" fill="white" class="classText"></text><line x1="0" y1="26.5625" y2="26.5625" x2="91.828125"></line><text x="5" y="41.5625" fill="white" class="classText"></text></g><g id="classid-HVACWaterTreatment1-4983" class="classGroup" transform="translate(2924.34375,453.5 )"><rect x="0" y="0" width="119.15625" height="31" class=" "></rect><text y="15" x="0"><tspan class="title" x="5">HVACWaterTreatment1</tspan></text><line x1="0" y1="21.5" y2="21.5" x2="119.15625"></line><text x="5" y="31.5" fill="white" class="classText"></text><line x1="0" y1="26.5" y2="26.5" x2="119.15625"></line><text x="5" y="41.5" fill="white" class="classText"></text></g><g id="classid-HVACTank1-4984" class="classGroup" transform="translate(1070.40625,453.5 )"><rect x="0" y="0" width="64.203125" height="31" class=" "></rect><text y="15" x="0"><tspan class="title" x="5">HVACTank1</tspan></text><line x1="0" y1="21.5" y2="21.5" x2="64.203125"></line><text x="5" y="31.5" fill="white" class="classText"></text><line x1="0" y1="26.5" y2="26.5" x2="64.203125"></line><text x="5" y="41.5" fill="white" class="classText"></text></g><g id="classid-Tank1-4985" class="classGroup" transform="translate(518.13671875,630.34375 )"><rect x="0" y="0" width="38.6875" height="31" class=" "></rect><text y="15" x="0"><tspan class="title" x="5">Tank1</tspan></text><line x1="0" y1="21.5" y2="21.5" x2="38.6875"></line><text x="5" y="31.5" fill="white" class="classText"></text><line x1="0" y1="26.5" y2="26.5" x2="38.6875"></line><text x="5" y="41.5" fill="white" class="classText"></text></g><g id="classid-TerminalUnit1-4986" class="classGroup" transform="translate(84.78125,437.71875 )"><rect x="0" y="0" width="132.671875" height="62.5625" class=" "></rect><text y="15" x="0"><tspan class="title" x="32.640625">TerminalUnit1</tspan></text><line x1="0" y1="21.5" y2="21.5" x2="132.671875"></line><text x="5" y="31.5" fill="white" class="classText"><tspan x="5">+double minAirflowRating</tspan><tspan x="5" dy="10">+double maxAirflowRating</tspan><tspan x="5" dy="10">+Object ductInlet</tspan></text><line x1="0" y1="58.0625" y2="58.0625" x2="132.671875"></line><text x="5" y="73.0625" fill="white" class="classText"></text></g><g id="classid-HVACPump1-4987" class="classGroup" transform="translate(1965.3203125,453.46875 )"><rect x="0" y="0" width="67.5625" height="31.0625" class=" "></rect><text y="15" x="0"><tspan class="title" x="5">HVACPump1</tspan></text><line x1="0" y1="21.5625" y2="21.5625" x2="67.5625"></line><text x="5" y="31.5625" fill="white" class="classText"></text><line x1="0" y1="26.5625" y2="26.5625" x2="67.5625"></line><text x="5" y="41.5625" fill="white" class="classText"></text></g><g id="classid-Pump1-4988" class="classGroup" transform="translate(1693.7734375,630.3125 )"><rect x="0" y="0" width="42.0625" height="31.0625" class=" "></rect><text y="15" x="0"><tspan class="title" x="5">Pump1</tspan></text><line x1="0" y1="21.5625" y2="21.5625" x2="42.0625"></line><text x="5" y="31.5625" fill="white" class="classText"></text><line x1="0" y1="26.5625" y2="26.5625" x2="42.0625"></line><text x="5" y="41.5625" fill="white" class="classText"></text></g><g id="classid-HeatExchanger1-4989" class="classGroup" transform="translate(2082.8828125,453.46875 )"><rect x="0" y="0" width="86.265625" height="31.0625" class=" "></rect><text y="15" x="0"><tspan class="title" x="5">HeatExchanger1</tspan></text><line x1="0" y1="21.5625" y2="21.5625" x2="86.265625"></line><text x="5" y="31.5625" fill="white" class="classText"></text><line x1="0" y1="26.5625" y2="26.5625" x2="86.265625"></line><text x="5" y="41.5625" fill="white" class="classText"></text></g><g id="classid-AirFilter1-4990" class="classGroup" transform="translate(2219.1484375,447.71875 )"><rect x="0" y="0" width="68.03125" height="42.5625" class=" "></rect><text y="15" x="0"><tspan class="title" x="11.4140625">AirFilter1</tspan></text><line x1="0" y1="21.5" y2="21.5" x2="68.03125"></line><text x="5" y="31.5" fill="white" class="classText"><tspan x="5">+Object fan</tspan></text><line x1="0" y1="38.0625" y2="38.0625" x2="68.03125"></line><text x="5" y="53.0625" fill="white" class="classText"></text></g><g id="classid-Damper1-4991" class="classGroup" transform="translate(3944.890625,432.6875 )"><rect x="0" y="0" width="110.3125" height="72.625" class=" "></rect><text y="15" x="0"><tspan class="title" x="34.125">Damper1</tspan></text><line x1="0" y1="21.5625" y2="21.5625" x2="110.3125"></line><text x="5" y="31.5625" fill="white" class="classText"><tspan x="5">+Object service</tspan><tspan x="5" dy="10">+Object leakageClass</tspan><tspan x="5" dy="10">+Object bladeType</tspan><tspan x="5" dy="10">+Object ductInlet</tspan></text><line x1="0" y1="68.125" y2="68.125" x2="110.3125"></line><text x="5" y="83.125" fill="white" class="classText"></text></g><g id="classid-CondensingUnit1-4992" class="classGroup" transform="translate(2695.90625,417.71875 )"><rect x="0" y="0" width="178.4375" height="102.5625" class=" "></rect><text y="15" x="0"><tspan class="title" x="49.796875">CondensingUnit1</tspan></text><line x1="0" y1="21.5625" y2="21.5625" x2="178.4375"></line><text x="5" y="31.5625" fill="white" class="classText"><tspan x="5">+Object type</tspan><tspan x="5" dy="10">+string refrigerantType</tspan><tspan x="5" dy="10">+double nominalHeatingCapacity</tspan><tspan x="5" dy="10">+double nominalCoolingCapacity</tspan><tspan x="5" dy="10">+double netSensibleHeatingCapacity</tspan><tspan x="5" dy="10">+double netSensibleCoolingCapacity</tspan><tspan x="5" dy="10">+double eer</tspan></text><line x1="0" y1="98.0625" y2="98.0625" x2="178.4375"></line><text x="5" y="113.0625" fill="white" class="classText"></text></g><g id="classid-HVACValve1-4993" class="classGroup" transform="translate(1624.45703125,453.5 )"><rect x="0" y="0" width="66.875" height="31" class=" "></rect><text y="15" x="0"><tspan class="title" x="5">HVACValve1</tspan></text><line x1="0" y1="21.5" y2="21.5" x2="66.875"></line><text x="5" y="31.5" fill="white" class="classText"></text><line x1="0" y1="26.5" y2="26.5" x2="66.875"></line><text x="5" y="41.5" fill="white" class="classText"></text></g><g id="classid-Valve1-4994" class="classGroup" transform="translate(680.19140625,630.34375 )"><rect x="0" y="0" width="41.375" height="31" class=" "></rect><text y="15" x="0"><tspan class="title" x="5">Valve1</tspan></text><line x1="0" y1="21.5" y2="21.5" x2="41.375"></line><text x="5" y="31.5" fill="white" class="classText"></text><line x1="0" y1="26.5" y2="26.5" x2="41.375"></line><text x="5" y="41.5" fill="white" class="classText"></text></g><g id="classid-HVACFan1-4995" class="classGroup" transform="translate(3372.17578125,437.71875 )"><rect x="0" y="0" width="94.171875" height="62.5625" class=" "></rect><text y="15" x="0"><tspan class="title" x="22.8671875">HVACFan1</tspan></text><line x1="0" y1="21.5" y2="21.5" x2="94.171875"></line><text x="5" y="31.5" fill="white" class="classText"><tspan x="5">+string type</tspan><tspan x="5" dy="10">+Object fan</tspan><tspan x="5" dy="10">+Object ductInlet</tspan></text><line x1="0" y1="58.0625" y2="58.0625" x2="94.171875"></line><text x="5" y="73.0625" fill="white" class="classText"></text></g><g id="classid-UnitHeater1-4996" class="classGroup" transform="translate(683.234375,432.71875 )"><rect x="0" y="0" width="162.59375" height="72.5625" class=" "></rect><text y="15" x="0"><tspan class="title" x="52.6015625">UnitHeater1</tspan></text><line x1="0" y1="21.5" y2="21.5" x2="162.59375"></line><text x="5" y="31.5" fill="white" class="classText"><tspan x="5">+Object type</tspan><tspan x="5" dy="10">+double nominalHeatingCapacity</tspan><tspan x="5" dy="10">+Object heatingMethod</tspan><tspan x="5" dy="10">+Object fan</tspan></text><line x1="0" y1="68.0625" y2="68.0625" x2="162.59375"></line><text x="5" y="83.0625" fill="white" class="classText"></text></g><g id="classid-HVACHeatTracing1-4997" class="classGroup" transform="translate(4105.203125,453.46875 )"><rect x="0" y="0" width="97.984375" height="31.0625" class=" "></rect><text y="15" x="0"><tspan class="title" x="5">HVACHeatTracing1</tspan></text><line x1="0" y1="21.5625" y2="21.5625" x2="97.984375"></line><text x="5" y="31.5625" fill="white" class="classText"></text><line x1="0" y1="26.5625" y2="26.5625" x2="97.984375"></line><text x="5" y="41.5625" fill="white" class="classText"></text></g><g id="classid-HeatTracing1-4998" class="classGroup" transform="translate(4203.0078125,630.3125 )"><rect x="0" y="0" width="72.484375" height="31.0625" class=" "></rect><text y="15" x="0"><tspan class="title" x="5">HeatTracing1</tspan></text><line x1="0" y1="21.5625" y2="21.5625" x2="72.484375"></line><text x="5" y="31.5625" fill="white" class="classText"></text><line x1="0" y1="26.5625" y2="26.5625" x2="72.484375"></line><text x="5" y="41.5625" fill="white" class="classText"></text></g><g id="classid-CoolingTower1-4999" class="classGroup" transform="translate(4253.1875,437.6875 )"><rect x="0" y="0" width="161.046875" height="62.625" class=" "></rect><text y="15" x="0"><tspan class="title" x="45.625">CoolingTower1</tspan></text><line x1="0" y1="21.5625" y2="21.5625" x2="161.046875"></line><text x="5" y="31.5625" fill="white" class="classText"><tspan x="5">+double nominalCoolingCapacity</tspan><tspan x="5" dy="10">+double flowCapacity</tspan><tspan x="5" dy="10">+Object fan</tspan></text><line x1="0" y1="58.125" y2="58.125" x2="161.046875"></line><text x="5" y="73.125" fill="white" class="classText"></text></g><g id="classid-Chiller1-5000" class="classGroup" transform="translate(4464.234375,427.71875 )"><rect x="0" y="0" width="176.875" height="82.5625" class=" "></rect><text y="15" x="0"><tspan class="title" x="70.03125">Chiller1</tspan></text><line x1="0" y1="21.5" y2="21.5" x2="176.875"></line><text x="5" y="31.5" fill="white" class="classText"><tspan x="5">+Object type</tspan><tspan x="5" dy="10">+string refrigerantType</tspan><tspan x="5" dy="10">+double nominalCoolingCapacity</tspan><tspan x="5" dy="10">+double netSensibleCoolingCapacity</tspan><tspan x="5" dy="10">+Object compressorType</tspan></text><line x1="0" y1="78.0625" y2="78.0625" x2="176.875"></line><text x="5" y="93.0625" fill="white" class="classText"></text></g><g id="classid-CAVBox1-5001" class="classGroup" transform="translate(23.5625,235.90625 )"><rect x="0" y="0" width="51.671875" height="31" class=" "></rect><text y="15" x="0"><tspan class="title" x="5">CAVBox1</tspan></text><line x1="0" y1="21.5" y2="21.5" x2="51.671875"></line><text x="5" y="31.5" fill="white" class="classText"></text><line x1="0" y1="26.5" y2="26.5" x2="51.671875"></line><text x="5" y="41.5" fill="white" class="classText"></text></g><g id="classid-FanCoilUnit1-5002" class="classGroup" transform="translate(329.0078125,195.125 )"><rect x="0" y="0" width="176.875" height="112.5625" class=" "></rect><text y="15" x="0"><tspan class="title" x="58.3046875">FanCoilUnit1</tspan></text><line x1="0" y1="21.5" y2="21.5" x2="176.875"></line><text x="5" y="31.5" fill="white" class="classText"><tspan x="5">+Object type</tspan><tspan x="5" dy="10">+string refrigerantType</tspan><tspan x="5" dy="10">+double nominalCoolingCapacity</tspan><tspan x="5" dy="10">+double netSensibleCoolingCapacity</tspan><tspan x="5" dy="10">+string filterType</tspan><tspan x="5" dy="10">+Object secondaryCoolingMethod</tspan><tspan x="5" dy="10">+Object primaryCoolingMethod</tspan><tspan x="5" dy="10">+Object fan</tspan></text><line x1="0" y1="108.0625" y2="108.0625" x2="176.875"></line><text x="5" y="123.0625" fill="white" class="classText"></text></g><g id="classid-VAVBox1-5003" class="classGroup" transform="translate(125.234375,235.90625 )"><rect x="0" y="0" width="51.765625" height="31" class=" "></rect><text y="15" x="0"><tspan class="title" x="5">VAVBox1</tspan></text><line x1="0" y1="21.5" y2="21.5" x2="51.765625"></line><text x="5" y="31.5" fill="white" class="classText"></text><line x1="0" y1="26.5" y2="26.5" x2="51.765625"></line><text x="5" y="41.5" fill="white" class="classText"></text></g><g id="classid-SteamUnitHeater1-5004" class="classGroup" transform="translate(555.8828125,230.125 )"><rect x="0" y="0" width="106.34375" height="42.5625" class=" "></rect><text y="15" x="0"><tspan class="title" x="10.1015625">SteamUnitHeater1</tspan></text><line x1="0" y1="21.5" y2="21.5" x2="106.34375"></line><text x="5" y="31.5" fill="white" class="classText"><tspan x="5">+integer condensate</tspan></text><line x1="0" y1="38.0625" y2="38.0625" x2="106.34375"></line><text x="5" y="53.0625" fill="white" class="classText"></text></g><g id="classid-ElectricUnitHeater1-5005" class="classGroup" transform="translate(712.2265625,230.125 )"><rect x="0" y="0" width="104.609375" height="42.5625" class=" "></rect><text y="15" x="0"><tspan class="title" x="5.6875">ElectricUnitHeater1</tspan></text><line x1="0" y1="21.5" y2="21.5" x2="104.609375"></line><text x="5" y="31.5" fill="white" class="classText"><tspan x="5">+double powerInput</tspan></text><line x1="0" y1="38.0625" y2="38.0625" x2="104.609375"></line><text x="5" y="53.0625" fill="white" class="classText"></text></g><g id="classid-HotWaterUnitHeater1-5006" class="classGroup" transform="translate(866.8359375,230.125 )"><rect x="0" y="0" width="112" height="42.5625" class=" "></rect><text y="15" x="0"><tspan class="title" x="5">HotWaterUnitHeater1</tspan></text><line x1="0" y1="21.5" y2="21.5" x2="112"></line><text x="5" y="31.5" fill="white" class="classText"><tspan x="5">+double flowCapacity</tspan></text><line x1="0" y1="38.0625" y2="38.0625" x2="112"></line><text x="5" y="53.0625" fill="white" class="classText"></text></g><g id="classid-HVACBackflowPreventer1-5007" class="classGroup" transform="translate(1028.8359375,235.90625 )"><rect x="0" y="0" width="130.1875" height="31" class=" "></rect><text y="15" x="0"><tspan class="title" x="5">HVACBackflowPreventer1</tspan></text><line x1="0" y1="21.5" y2="21.5" x2="130.1875"></line><text x="5" y="31.5" fill="white" class="classText"></text><line x1="0" y1="26.5" y2="26.5" x2="130.1875"></line><text x="5" y="41.5" fill="white" class="classText"></text></g><g id="classid-HVACSolenoidValve1-5008" class="classGroup" transform="translate(1209.0234375,235.90625 )"><rect x="0" y="0" width="106.703125" height="31" class=" "></rect><text y="15" x="0"><tspan class="title" x="5">HVACSolenoidValve1</tspan></text><line x1="0" y1="21.5" y2="21.5" x2="106.703125"></line><text x="5" y="31.5" fill="white" class="classText"></text><line x1="0" y1="26.5" y2="26.5" x2="106.703125"></line><text x="5" y="41.5" fill="white" class="classText"></text></g><g id="classid-HVACShutOffValve1-5009" class="classGroup" transform="translate(1365.7265625,230.125 )"><rect x="0" y="0" width="102.21875" height="42.5625" class=" "></rect><text y="15" x="0"><tspan class="title" x="5">HVACShutOffValve1</tspan></text><line x1="0" y1="21.5" y2="21.5" x2="102.21875"></line><text x="5" y="31.5" fill="white" class="classText"><tspan x="5">+Object type</tspan></text><line x1="0" y1="38.0625" y2="38.0625" x2="102.21875"></line><text x="5" y="53.0625" fill="white" class="classText"></text></g><g id="classid-HVACPressureReducingStation1-5010" class="classGroup" transform="translate(1517.9453125,235.875 )"><rect x="0" y="0" width="157.3125" height="31.0625" class=" "></rect><text y="15" x="0"><tspan class="title" x="5">HVACPressureReducingStation1</tspan></text><line x1="0" y1="21.5625" y2="21.5625" x2="157.3125"></line><text x="5" y="31.5625" fill="white" class="classText"></text><line x1="0" y1="26.5625" y2="26.5625" x2="157.3125"></line><text x="5" y="41.5625" fill="white" class="classText"></text></g><g id="classid-HVACGlobeValve1-5011" class="classGroup" transform="translate(1725.2578125,235.90625 )"><rect x="0" y="0" width="93.765625" height="31" class=" "></rect><text y="15" x="0"><tspan class="title" x="5">HVACGlobeValve1</tspan></text><line x1="0" y1="21.5" y2="21.5" x2="93.765625"></line><text x="5" y="31.5" fill="white" class="classText"></text><line x1="0" y1="26.5" y2="26.5" x2="93.765625"></line><text x="5" y="41.5" fill="white" class="classText"></text></g><g id="classid-HVACPressureReducingValve1-5012" class="classGroup" transform="translate(1869.0234375,235.875 )"><rect x="0" y="0" width="149.90625" height="31.0625" class=" "></rect><text y="15" x="0"><tspan class="title" x="5">HVACPressureReducingValve1</tspan></text><line x1="0" y1="21.5625" y2="21.5625" x2="149.90625"></line><text x="5" y="31.5625" fill="white" class="classText"></text><line x1="0" y1="26.5625" y2="26.5625" x2="149.90625"></line><text x="5" y="41.5625" fill="white" class="classText"></text></g><g id="classid-HVACCheckValve1-5013" class="classGroup" transform="translate(2068.9296875,235.90625 )"><rect x="0" y="0" width="95.265625" height="31" class=" "></rect><text y="15" x="0"><tspan class="title" x="5">HVACCheckValve1</tspan></text><line x1="0" y1="21.5" y2="21.5" x2="95.265625"></line><text x="5" y="31.5" fill="white" class="classText"></text><line x1="0" y1="26.5" y2="26.5" x2="95.265625"></line><text x="5" y="41.5" fill="white" class="classText"></text></g><g id="classid-HVACBalancingValve1-5014" class="classGroup" transform="translate(2214.1953125,235.875 )"><rect x="0" y="0" width="111.359375" height="31.0625" class=" "></rect><text y="15" x="0"><tspan class="title" x="5">HVACBalancingValve1</tspan></text><line x1="0" y1="21.5625" y2="21.5625" x2="111.359375"></line><text x="5" y="31.5625" fill="white" class="classText"></text><line x1="0" y1="26.5625" y2="26.5625" x2="111.359375"></line><text x="5" y="41.5625" fill="white" class="classText"></text></g><g id="classid-MakeupAirUnit1-5015" class="classGroup" transform="translate(2375.5546875,235.875 )"><rect x="0" y="0" width="84.828125" height="31.0625" class=" "></rect><text y="15" x="0"><tspan class="title" x="5">MakeupAirUnit1</tspan></text><line x1="0" y1="21.5625" y2="21.5625" x2="84.828125"></line><text x="5" y="31.5625" fill="white" class="classText"></text><line x1="0" y1="26.5625" y2="26.5625" x2="84.828125"></line><text x="5" y="41.5625" fill="white" class="classText"></text></g><g id="classid-RooftopUnit1-5016" class="classGroup" transform="translate(2510.3828125,235.875 )"><rect x="0" y="0" width="72.0625" height="31.0625" class=" "></rect><text y="15" x="0"><tspan class="title" x="5">RooftopUnit1</tspan></text><line x1="0" y1="21.5625" y2="21.5625" x2="72.0625"></line><text x="5" y="31.5625" fill="white" class="classText"></text><line x1="0" y1="26.5625" y2="26.5625" x2="72.0625"></line><text x="5" y="41.5625" fill="white" class="classText"></text></g><g id="classid-DedicatedOutdoorAirSystem1-5017" class="classGroup" transform="translate(2677.68359375,235.875 )"><rect x="0" y="0" width="147.734375" height="31.0625" class=" "></rect><text y="15" x="0"><tspan class="title" x="5">DedicatedOutdoorAirSystem1</tspan></text><line x1="0" y1="21.5625" y2="21.5625" x2="147.734375"></line><text x="5" y="31.5625" fill="white" class="classText"></text><line x1="0" y1="26.5625" y2="26.5625" x2="147.734375"></line><text x="5" y="41.5625" fill="white" class="classText"></text></g><g id="classid-WaterFilter1-5018" class="classGroup" transform="translate(2920.65625,210.125 )"><rect x="0" y="0" width="126.53125" height="82.5625" class=" "></rect><text y="15" x="0"><tspan class="title" x="33.3828125">WaterFilter1</tspan></text><line x1="0" y1="21.5" y2="21.5" x2="126.53125"></line><text x="5" y="31.5" fill="white" class="classText"><tspan x="5">+double workingPressure</tspan><tspan x="5" dy="10">+string type</tspan><tspan x="5" dy="10">+double tankCapacity</tspan><tspan x="5" dy="10">+double flowCapacity</tspan><tspan x="5" dy="10">+integer filtrationRating</tspan></text><line x1="0" y1="78.0625" y2="78.0625" x2="126.53125"></line><text x="5" y="93.0625" fill="white" class="classText"></text></g><g id="classid-CeilingFan1-5019" class="classGroup" transform="translate(3097.1875,225.125 )"><rect x="0" y="0" width="137.109375" height="52.5625" class=" "></rect><text y="15" x="0"><tspan class="title" x="41.234375">CeilingFan1</tspan></text><line x1="0" y1="21.5625" y2="21.5625" x2="137.109375"></line><text x="5" y="31.5625" fill="white" class="classText"><tspan x="5">+double maxRotationSpeed</tspan><tspan x="5" dy="10">+double bladeDiameter</tspan></text><line x1="0" y1="48.0625" y2="48.0625" x2="137.109375"></line><text x="5" y="63.0625" fill="white" class="classText"></text></g><g id="classid-ExhaustFan1-5020" class="classGroup" transform="translate(3284.296875,235.90625 )"><rect x="0" y="0" width="69.578125" height="31" class=" "></rect><text y="15" x="0"><tspan class="title" x="5">ExhaustFan1</tspan></text><line x1="0" y1="21.5" y2="21.5" x2="69.578125"></line><text x="5" y="31.5" fill="white" class="classText"></text><line x1="0" y1="26.5" y2="26.5" x2="69.578125"></line><text x="5" y="41.5" fill="white" class="classText"></text></g><g id="classid-StairPressurizationFan1-5021" class="classGroup" transform="translate(3403.875,235.90625 )"><rect x="0" y="0" width="121.375" height="31" class=" "></rect><text y="15" x="0"><tspan class="title" x="5">StairPressurizationFan1</tspan></text><line x1="0" y1="21.5" y2="21.5" x2="121.375"></line><text x="5" y="31.5" fill="white" class="classText"></text><line x1="0" y1="26.5" y2="26.5" x2="121.375"></line><text x="5" y="41.5" fill="white" class="classText"></text></g><g id="classid-TransferFan1-5022" class="classGroup" transform="translate(3575.25,235.90625 )"><rect x="0" y="0" width="72.578125" height="31" class=" "></rect><text y="15" x="0"><tspan class="title" x="5">TransferFan1</tspan></text><line x1="0" y1="21.5" y2="21.5" x2="72.578125"></line><text x="5" y="31.5" fill="white" class="classText"></text><line x1="0" y1="26.5" y2="26.5" x2="72.578125"></line><text x="5" y="41.5" fill="white" class="classText"></text></g><g id="classid-SupplyFan1-5023" class="classGroup" transform="translate(3697.828125,235.875 )"><rect x="0" y="0" width="63.890625" height="31.0625" class=" "></rect><text y="15" x="0"><tspan class="title" x="5">SupplyFan1</tspan></text><line x1="0" y1="21.5625" y2="21.5625" x2="63.890625"></line><text x="5" y="31.5625" fill="white" class="classText"></text><line x1="0" y1="26.5625" y2="26.5625" x2="63.890625"></line><text x="5" y="41.5625" fill="white" class="classText"></text></g><g id="classid-BackdraftDamper1-5024" class="classGroup" transform="translate(3811.71875,235.875 )"><rect x="0" y="0" width="97" height="31.0625" class=" "></rect><text y="15" x="0"><tspan class="title" x="5">BackdraftDamper1</tspan></text><line x1="0" y1="21.5625" y2="21.5625" x2="97"></line><text x="5" y="31.5625" fill="white" class="classText"></text><line x1="0" y1="26.5625" y2="26.5625" x2="97"></line><text x="5" y="41.5625" fill="white" class="classText"></text></g><g id="classid-SmokeDamper1-5025" class="classGroup" transform="translate(3958.71875,235.875 )"><rect x="0" y="0" width="82.65625" height="31.0625" class=" "></rect><text y="15" x="0"><tspan class="title" x="5">SmokeDamper1</tspan></text><line x1="0" y1="21.5625" y2="21.5625" x2="82.65625"></line><text x="5" y="31.5625" fill="white" class="classText"></text><line x1="0" y1="26.5625" y2="26.5625" x2="82.65625"></line><text x="5" y="41.5625" fill="white" class="classText"></text></g><g id="classid-FireDamper1-5026" class="classGroup" transform="translate(4091.375,230.09375 )"><rect x="0" y="0" width="97.90625" height="42.625" class=" "></rect><text y="15" x="0"><tspan class="title" x="18.5078125">FireDamper1</tspan></text><line x1="0" y1="21.5625" y2="21.5625" x2="97.90625"></line><text x="5" y="31.5625" fill="white" class="classText"><tspan x="5">+double fireRating</tspan></text><line x1="0" y1="38.125" y2="38.125" x2="97.90625"></line><text x="5" y="53.125" fill="white" class="classText"></text></g><g id="classid-FanPoweredBox1-5027" class="classGroup" transform="translate(8.609375,92.5625 )"><rect x="0" y="0" width="113.203125" height="52.5625" class=" "></rect><text y="15" x="0"><tspan class="title" x="16.1015625">FanPoweredBox1</tspan></text><line x1="0" y1="21.5" y2="21.5" x2="113.203125"></line><text x="5" y="31.5" fill="white" class="classText"><tspan x="5">+Object configuration</tspan><tspan x="5" dy="10">+Object fan</tspan></text><line x1="0" y1="48.0625" y2="48.0625" x2="113.203125"></line><text x="5" y="63.0625" fill="white" class="classText"></text></g><g id="classid-VAVBoxReheat1-5028" class="classGroup" transform="translate(171.8125,97.5625 )"><rect x="0" y="0" width="130.421875" height="42.5625" class=" "></rect><text y="15" x="0"><tspan class="title" x="27.9140625">VAVBoxReheat1</tspan></text><line x1="0" y1="21.5" y2="21.5" x2="130.421875"></line><text x="5" y="31.5" fill="white" class="classText"><tspan x="5">+Object reHeatingMethod</tspan></text><line x1="0" y1="38.0625" y2="38.0625" x2="130.421875"></line><text x="5" y="53.0625" fill="white" class="classText"></text></g><g id="classid-FanCoilUnitReheat1-5029" class="classGroup" transform="translate(352.234375,97.5625 )"><rect x="0" y="0" width="130.421875" height="42.5625" class=" "></rect><text y="15" x="0"><tspan class="title" x="18.6640625">FanCoilUnitReheat1</tspan></text><line x1="0" y1="21.5" y2="21.5" x2="130.421875"></line><text x="5" y="31.5" fill="white" class="classText"><tspan x="5">+Object reHeatingMethod</tspan></text><line x1="0" y1="38.0625" y2="38.0625" x2="130.421875"></line><text x="5" y="53.0625" fill="white" class="classText"></text></g><g id="classid-FireSmokeDamper1-5030" class="classGroup" transform="translate(4089.5859375,103.3125 )"><rect x="0" y="0" width="101.484375" height="31.0625" class=" "></rect><text y="15" x="0"><tspan class="title" x="5">FireSmokeDamper1</tspan></text><line x1="0" y1="21.5625" y2="21.5625" x2="101.484375"></line><text x="5" y="31.5625" fill="white" class="classText"></text><line x1="0" y1="26.5625" y2="26.5625" x2="101.484375"></line><text x="5" y="41.5625" fill="white" class="classText"></text></g><g id="classid-FanPoweredBoxReheat1-5031" class="classGroup" transform="translate(0,0 )"><rect x="0" y="0" width="130.421875" height="42.5625" class=" "></rect><text y="15" x="0"><tspan class="title" x="8.296875">FanPoweredBoxReheat1</tspan></text><line x1="0" y1="21.5" y2="21.5" x2="130.421875"></line><text x="5" y="31.5" fill="white" class="classText"><tspan x="5">+Object reHeatingMethod</tspan></text><line x1="0" y1="38.0625" y2="38.0625" x2="130.421875"></line><text x="5" y="53.0625" fill="white" class="classText"></text></g><path d="M2546.4140625,580.3125L2546.4140625,584.4791666666666C2546.4140625,588.6458333333334,2546.4140625,596.9791666666666,2546.4140625,605.3125C2546.4140625,613.6458333333334,2546.4140625,621.9791666666666,2546.4140625,626.1458333333334L2546.4140625,630.3125" id="edge2141" class="relation" marker-start="url(#extensionStart)"></path><path d="M2983.921875,484.5L2983.921875,504.6354166666667C2983.921875,524.7708333333334,2983.921875,565.0416666666666,2918.65625,591.2233693371546C2853.390625,617.4050720076427,2722.859375,629.4976440152855,2657.59375,635.5439300191068L2592.328125,641.5902160229282" id="edge2142" class="relation" marker-start="url(#extensionStart)"></path><path d="M1094.354943976387,484.5L1083.7638856053225,504.6354166666667C1073.172827234258,524.7708333333334,1051.990710492129,565.0416666666666,962.4022562877311,591.6674150975517C872.8138020833334,618.2931635284367,714.8190104166666,631.2738270568735,635.8216145833334,637.7641588210919L556.82421875,644.2544905853102" id="edge2143" class="relation" marker-start="url(#extensionStart)"></path><path d="M1107.9396528255388,484.5L1114.9959346462822,504.6354166666667C1122.0522164670258,524.7708333333334,1136.164780108513,565.0416666666666,1368.2581713042564,591.7101364483046C1600.3515625,618.3786062299426,2050.42578125,631.4447124598852,2275.462890625,637.9777655748564L2500.5,644.5108186898277" id="edge2144" class="relation" marker-start="url(#extensionStart)"></path><path d="M151.1171875,500.28125L151.1171875,517.7864583333334C151.1171875,535.2916666666666,151.1171875,570.3020833333334,542.6809895833334,594.4330133126276C934.2447916666666,618.5639432919219,1717.3723958333333,631.8153865838437,2108.9361979166665,638.4411082298046L2500.5,645.0668298757656" id="edge2145" class="relation" marker-start="url(#extensionStart)"></path><path d="M1993.563080295736,484.53125L1986.3845981631132,504.6614583333333C1979.2061160304904,524.7916666666666,1964.8491517652453,565.0520833333334,1921.894627965956,591.3347082725626C1878.9401041666667,617.6173332117918,1807.3880208333333,629.9221664235835,1771.6119791666667,636.0745830294794L1735.8359375,642.2269996353753" id="edge2146" class="relation" marker-start="url(#extensionStart)"></path><path d="M2005.1923796781866,484.53125L2013.0867486901554,504.6614583333333C2020.9811177021245,524.7916666666666,2036.7698557260621,565.0520833333334,2119.321125779698,591.3094639100034C2201.8723958333335,617.5668444866734,2351.1861979166665,629.8211889733469,2425.8430989583335,635.9483612166837L2500.5,642.0755334600204" id="edge2147" class="relation" marker-start="url(#extensionStart)"></path><path d="M2126.015625,484.53125L2126.015625,504.6614583333333C2126.015625,524.7916666666666,2126.015625,565.0520833333334,2188.4296875,591.1997259505491C2250.84375,617.347368567765,2375.671875,629.3822371355299,2438.0859375,635.3996714194124L2500.5,641.4171057032949" id="edge2148" class="relation" marker-start="url(#extensionStart)"></path><path d="M2253.1640625,490.28125L2253.1640625,509.453125C2253.1640625,528.625,2253.1640625,566.96875,2294.38671875,591.8381724377931C2335.609375,616.7075948755861,2418.0546875,628.1026897511722,2459.27734375,633.8002371889653L2500.5,639.4977846267583" id="edge2149" class="relation" marker-start="url(#extensionStart)"></path><path d="M4000.046875,505.3125L4000.046875,521.9791666666666C4000.046875,538.6458333333334,4000.046875,571.9791666666666,3765.4270833333335,595.1876734384937C3530.8072916666665,618.3961802103207,3061.5677083333335,631.4798604206416,2826.9479166666665,638.0217005258019L2592.328125,644.5635406309623" id="edge2150" class="relation" marker-start="url(#extensionStart)"></path><path d="M2785.125,520.28125L2785.125,534.453125C2785.125,548.625,2785.125,576.96875,2752.9921875,596.5965252209131C2720.859375,616.2243004418261,2656.59375,627.1361008836524,2624.4609375,632.5920011045655L2592.328125,638.0479013254786" id="edge2151" class="relation" marker-start="url(#extensionStart)"></path><path d="M1624.45703125,478.3473924537371L1548.7604166666667,499.5082437114476C1473.0638020833333,520.669094969158,1321.6705729166667,562.990797484579,1171.1888020833333,590.6091390577698C1020.70703125,618.2274806309605,871.13671875,631.1424612619211,796.3515625,637.5999515774014L721.56640625,644.0574418928816" id="edge2152" class="relation" marker-start="url(#extensionStart)"></path><path d="M1688.8914220111187,484.5L1729.1582162592656,504.6354166666667C1769.4250105074125,524.7708333333334,1849.958599003706,565.0416666666666,1985.2266953351864,591.4287228372317C2120.4947916666665,617.8157790077966,2310.4973958333335,630.3190580155932,2405.4986979166665,636.5706975194915L2500.5,642.8223370233898" id="edge2153" class="relation" marker-start="url(#extensionStart)"></path><path d="M3419.26171875,500.28125L3419.26171875,517.7864583333334C3419.26171875,535.2916666666666,3419.26171875,570.3020833333334,3281.439453125,594.207158428769C3143.6171875,618.1122335242046,2867.97265625,630.9119670484092,2730.150390625,637.3118338105115L2592.328125,643.7117005726138" id="edge2154" class="relation" marker-start="url(#extensionStart)"></path><path d="M764.53125,505.28125L764.53125,521.953125C764.53125,538.625,764.53125,571.96875,1053.859375,595.2217707881191C1343.1875,618.4747915762383,1921.84375,631.6370831524765,2211.171875,638.2182289405956L2500.5,644.7993747287148" id="edge2155" class="relation" marker-start="url(#extensionStart)"></path><path d="M4146.552972582817,484.53125L4136.647659444015,504.6614583333333C4126.742346305212,524.7916666666666,4106.9317200276055,565.0520833333334,4116.340860013803,590.3281837099329C4125.75,615.6042840865323,4164.37890625,625.8960681730646,4183.693359375,631.0419602163307L4203.0078125,636.1878522595969" id="edge2156" class="relation" marker-start="url(#extensionStart)"></path><path d="M4163.282802828405,484.53125L4175.061189857004,504.6614583333333C4186.8395768856035,524.7916666666666,4210.396350942802,565.0520833333334,3948.570571304734,591.7537062944144C3686.7447916666665,618.4553292554956,3139.5364583333335,631.5981585109913,2865.9322916666665,638.1695731387391L2592.328125,644.7409877664869" id="edge2157" class="relation" marker-start="url(#extensionStart)"></path><path d="M4333.7109375,500.3125L4333.7109375,517.8125C4333.7109375,535.3125,4333.7109375,570.3125,4043.48046875,594.3941730567066C3753.25,618.4758461134132,3172.7890625,631.6391922268265,2882.55859375,638.220865283533L2592.328125,644.8025383402397" id="edge2158" class="relation" marker-start="url(#extensionStart)"></path><path d="M4552.671875,510.28125L4552.671875,526.1197916666666C4552.671875,541.9583333333334,4552.671875,573.6354166666666,4225.947916666667,596.0745708536637C3899.2239583333335,618.5137250406606,3245.7760416666665,631.714950081321,2919.0520833333335,638.3155626016513L2592.328125,644.9161751219816" id="edge2159" class="relation" marker-start="url(#extensionStart)"></path><path d="M49.3984375,266.90625L49.3984375,277.8697916666667C49.3984375,288.8333333333333,49.3984375,310.7604166666667,62.46112734983952,339.2291666666667C75.52381719967904,367.6979166666667,101.6491968993581,402.7083333333333,114.71188674919762,420.2135416666667L127.77457659903715,437.71875" id="edge2160" class="relation" marker-start="url(#extensionStart)"></path><path d="M417.4453125,307.6875L417.4453125,311.8541666666667C417.4453125,316.0208333333333,417.4453125,324.3541666666667,383.24353853832343,346.0260416666667C349.0417645766468,367.6979166666667,280.63821665329357,402.7083333333333,246.436442691617,420.2135416666667L212.23466872994038,437.71875" id="edge2161" class="relation" marker-start="url(#extensionStart)"></path><path d="M151.1171875,266.90625L151.1171875,277.8697916666667C151.1171875,288.8333333333333,151.1171875,310.7604166666667,151.1171875,339.2291666666667C151.1171875,367.6979166666667,151.1171875,402.7083333333333,151.1171875,420.2135416666667L151.1171875,437.71875" id="edge2162" class="relation" marker-start="url(#extensionStart)"></path><path d="M609.0546875,272.6875L609.0546875,282.6875C609.0546875,292.6875,609.0546875,312.6875,628.0704477232348,339.359375C647.0862079464695,366.03125,685.1177283929391,399.375,704.1334886161738,416.046875L723.1492488394085,432.71875" id="edge2163" class="relation" marker-start="url(#extensionStart)"></path><path d="M764.53125,272.6875L764.53125,282.6875C764.53125,292.6875,764.53125,312.6875,764.53125,339.359375C764.53125,366.03125,764.53125,399.375,764.53125,416.046875L764.53125,432.71875" id="edge2164" class="relation" marker-start="url(#extensionStart)"></path><path d="M922.8359375,272.6875L922.8359375,282.6875C922.8359375,292.6875,922.8359375,312.6875,903.4742798243351,339.359375C884.1126221486703,366.03125,845.3893067973407,399.375,826.0276491216758,416.046875L806.665991446011,432.71875" id="edge2165" class="relation" marker-start="url(#extensionStart)"></path><path d="M1093.9296875,266.90625L1093.9296875,277.8697916666667C1093.9296875,288.8333333333333,1093.9296875,310.7604166666667,1182.3509114583333,343.0957126623377C1270.7721354166667,375.4310086580087,1447.6145833333333,418.17451731601733,1536.0358072916667,439.5462716450217L1624.45703125,460.91802597402597" id="edge2166" class="relation" marker-start="url(#extensionStart)"></path><path d="M1262.375,266.90625L1262.375,277.8697916666667C1262.375,288.8333333333333,1262.375,310.7604166666667,1322.7220052083333,342.52204919236965C1383.0690104166667,374.28368171807256,1503.7630208333333,415.8798634361451,1564.1100260416667,436.67795429518145L1624.45703125,457.4760451542177" id="edge2167" class="relation" marker-start="url(#extensionStart)"></path><path d="M1416.8359375,272.6875L1416.8359375,282.6875C1416.8359375,292.6875,1416.8359375,312.6875,1452.4439354916515,342.8229166666667C1488.0519334833027,372.9583333333333,1559.2679294666057,413.2291666666667,1594.8759274582571,433.3645833333333L1630.4839254499084,453.5" id="edge2168" class="relation" marker-start="url(#extensionStart)"></path><path d="M1596.6015625,266.9375L1596.6015625,277.8958333333333C1596.6015625,288.8541666666667,1596.6015625,310.7708333333333,1605.6554604515322,341.8645833333333C1614.7093584030645,372.9583333333333,1632.8171543061287,413.2291666666667,1641.871052257661,433.3645833333333L1650.924950209193,453.5" id="edge2169" class="relation" marker-start="url(#extensionStart)"></path><path d="M1772.140625,266.90625L1772.140625,277.8697916666667C1772.140625,288.8333333333333,1772.140625,310.7604166666667,1755.2647500788055,341.859375C1738.3888751576112,372.9583333333333,1704.6371253152222,413.2291666666667,1687.761250394028,433.3645833333333L1670.8853754728336,453.5" id="edge2170" class="relation" marker-start="url(#extensionStart)"></path><path d="M1943.9765625,266.9375L1943.9765625,277.8958333333333C1943.9765625,288.8541666666667,1943.9765625,310.7708333333333,1901.7179222427594,341.8645833333333C1859.4592819855188,372.9583333333333,1774.9420014710377,413.2291666666667,1732.683361213797,433.3645833333333L1690.4247209565567,453.5" id="edge2171" class="relation" marker-start="url(#extensionStart)"></path><path d="M2116.5625,266.90625L2116.5625,277.8697916666667C2116.5625,288.8333333333333,2116.5625,310.7604166666667,2045.6907552083333,342.7864814875929C1974.8190104166667,374.8125463085191,1833.0755208333333,416.9375926170381,1762.2037760416667,438.00011577129766L1691.33203125,459.06263892555717" id="edge2172" class="relation" marker-start="url(#extensionStart)"></path><path d="M2269.875,266.9375L2269.875,277.8958333333333C2269.875,288.8541666666667,2269.875,310.7708333333333,2173.451171875,343.20660547796706C2077.02734375,375.6423776226008,1884.1796875,418.59725524520155,1787.755859375,440.074694056502L1691.33203125,461.5521328678024" id="edge2173" class="relation" marker-start="url(#extensionStart)"></path><path d="M2417.96875,266.9375L2417.96875,277.8958333333333C2417.96875,288.8541666666667,2417.96875,310.7708333333333,2422.7942708333335,326.8502473491069C2427.6197916666665,342.9296613648805,2437.2708333333335,353.171822729761,2442.0963541666665,358.2929034122012L2446.921875,363.4139840946415" id="edge2174" class="relation" marker-start="url(#extensionStart)"></path><path d="M2546.4140625,266.9375L2546.4140625,277.8958333333333C2546.4140625,288.8541666666667,2546.4140625,310.7708333333333,2546.4140625,325.8958333333333C2546.4140625,341.0208333333333,2546.4140625,349.3541666666667,2546.4140625,353.5208333333333L2546.4140625,357.6875" id="edge2175" class="relation" marker-start="url(#extensionStart)"></path><path d="M2751.55078125,266.9375L2751.55078125,277.8958333333333C2751.55078125,288.8541666666667,2751.55078125,310.7708333333333,2733.943359375,333.42922557840615C2716.3359375,356.087617823479,2681.12109375,379.487735646958,2663.513671875,391.18779455869753L2645.90625,402.887853470437" id="edge2176" class="relation" marker-start="url(#extensionStart)"></path><path d="M2983.921875,292.6875L2983.921875,299.3541666666667C2983.921875,306.0208333333333,2983.921875,319.3541666666667,2983.921875,346.15625C2983.921875,372.9583333333333,2983.921875,413.2291666666667,2983.921875,433.3645833333333L2983.921875,453.5" id="edge2177" class="relation" marker-start="url(#extensionStart)"></path><path d="M3165.7421875,277.6875L3165.7421875,286.8541666666667C3165.7421875,296.0208333333333,3165.7421875,314.3541666666667,3200.1477864583335,342.0200518546196C3234.5533854166665,369.68593704257256,3303.3645833333335,406.68437408514507,3337.7701822916665,425.1835926064314L3372.17578125,443.6828111277176" id="edge2178" class="relation" marker-start="url(#extensionStart)"></path><path d="M3319.0859375,266.90625L3319.0859375,277.8697916666667C3319.0859375,288.8333333333333,3319.0859375,310.7604166666667,3331.950479788753,339.2291666666667C3344.8150220775065,367.6979166666667,3370.5441066550134,402.7083333333333,3383.4086489437664,420.2135416666667L3396.2731912325194,437.71875" id="edge2179" class="relation" marker-start="url(#extensionStart)"></path><path d="M3464.5625,266.90625L3464.5625,277.8697916666667C3464.5625,288.8333333333333,3464.5625,310.7604166666667,3458.744987934386,339.2291666666667C3452.927475868772,367.6979166666667,3441.2924517375445,402.7083333333333,3435.4749396719303,420.2135416666667L3429.657427606316,437.71875" id="edge2180" class="relation" marker-start="url(#extensionStart)"></path><path d="M3611.5390625,266.90625L3611.5390625,277.8697916666667C3611.5390625,288.8333333333333,3611.5390625,310.7604166666667,3586.846866552279,339.2291666666667C3562.154670604558,367.6979166666667,3512.7702787091166,402.7083333333333,3488.0780827613958,420.2135416666667L3463.385886813675,437.71875" id="edge2181" class="relation" marker-start="url(#extensionStart)"></path><path d="M3729.7734375,266.9375L3729.7734375,277.8958333333333C3729.7734375,288.8541666666667,3729.7734375,310.7708333333333,3685.869140625,341.00284977230126C3641.96484375,371.2348662112692,3554.15625,409.78223242253836,3510.251953125,429.055915528173L3466.34765625,448.3295986338076" id="edge2182" class="relation" marker-start="url(#extensionStart)"></path><path d="M3860.21875,266.9375L3860.21875,277.8958333333333C3860.21875,288.8541666666667,3860.21875,310.7708333333333,3877.315265359927,338.3958333333333C3894.411780719853,366.0208333333333,3928.6048114397067,399.3541666666667,3945.7013267996335,416.0208333333333L3962.79784215956,432.6875" id="edge2183" class="relation" marker-start="url(#extensionStart)"></path><path d="M4000.046875,266.9375L4000.046875,277.8958333333333C4000.046875,288.8541666666667,4000.046875,310.7708333333333,4000.046875,338.3958333333333C4000.046875,366.0208333333333,4000.046875,399.3541666666667,4000.046875,416.0208333333333L4000.046875,432.6875" id="edge2184" class="relation" marker-start="url(#extensionStart)"></path><path d="M4140.328125,272.71875L4140.328125,282.7135416666667C4140.328125,292.7083333333333,4140.328125,312.6979166666667,4123.176206919609,339.359375C4106.024288839218,366.0208333333333,4071.720452678435,399.3541666666667,4054.5685345980437,416.0208333333333L4037.4166165176525,432.6875" id="edge2185" class="relation" marker-start="url(#extensionStart)"></path><path d="M65.2109375,145.125L65.2109375,149.29166666666666C65.2109375,153.45833333333334,65.2109375,161.79166666666666,76.79831775438934,176.921875C88.38569800877868,192.05208333333334,111.56045851755736,213.97916666666666,123.1478387719467,224.94270833333334L134.73521902633604,235.90625" id="edge2186" class="relation" marker-start="url(#extensionStart)"></path><path d="M237.0234375,140.125L237.0234375,145.125C237.0234375,150.125,237.0234375,160.125,225.43605724561067,176.08854166666666C213.8486769912213,192.05208333333334,190.67391648244265,213.97916666666666,179.08653622805332,224.94270833333334L167.49915597366396,235.90625" id="edge2187" class="relation" marker-start="url(#extensionStart)"></path><path d="M417.4453125,140.125L417.4453125,145.125C417.4453125,150.125,417.4453125,160.125,417.4453125,169.29166666666666C417.4453125,178.45833333333334,417.4453125,186.79166666666666,417.4453125,190.95833333333334L417.4453125,195.125" id="edge2188" class="relation" marker-start="url(#extensionStart)"></path><path d="M4140.328125,134.375L4140.328125,140.33333333333334C4140.328125,146.29166666666666,4140.328125,158.20833333333334,4140.328125,174.16145833333334C4140.328125,190.11458333333334,4140.328125,210.10416666666666,4140.328125,220.09895833333334L4140.328125,230.09375" id="edge2189" class="relation" marker-start="url(#extensionStart)"></path><path d="M65.2109375,42.5625L65.2109375,46.729166666666664C65.2109375,50.895833333333336,65.2109375,59.229166666666664,65.2109375,67.5625C65.2109375,75.89583333333333,65.2109375,84.22916666666667,65.2109375,88.39583333333333L65.2109375,92.5625" id="edge2190" class="relation" marker-start="url(#extensionStart)"></path></svg>